<?xml version="1.0" encoding="UTF-8"?>
<svg xmlns="http://www.w3.org/2000/svg" xmlns:xlink="http://www.w3.org/1999/xlink" viewBox="0 0 48 48" width="48px" height="48px">
<g id="surface35587156">
<path style=" stroke:none;fill-rule:nonzero;fill:rgb(100%,100%,100%);fill-opacity:1;" d="M 40.125 36.257812 L 36.253906 40.125 C 35.546875 40.839844 34.390625 40.839844 33.679688 40.125 L 24 30.453125 L 14.328125 40.125 C 13.617188 40.839844 12.453125 40.839844 11.746094 40.125 L 7.875 36.257812 C 7.160156 35.546875 7.160156 34.390625 7.875 33.679688 L 17.546875 24 L 7.875 14.328125 C 7.167969 13.609375 7.167969 12.445312 7.875 11.746094 L 11.746094 7.875 C 12.453125 7.160156 13.617188 7.160156 14.328125 7.875 L 24 17.554688 L 33.679688 7.875 C 34.390625 7.160156 35.554688 7.160156 36.253906 7.875 L 40.125 11.742188 C 40.839844 12.453125 40.839844 13.617188 40.132812 14.328125 L 30.453125 24 L 40.125 33.679688 C 40.839844 34.390625 40.839844 35.546875 40.125 36.257812 Z M 40.125 36.257812 "/>
</g>
</svg>
